<svg xmlns="http://www.w3.org/2000/svg" x="0px" y="0px" width="96" height="96" viewBox="0 0 64 64">
    <linearGradient id="zIatjYR2B4ilOwYOQBgNUa_t7vIvDXazOGO_gr1" x1="32.066" x2="32.066" y1="5.133" y2="59" gradientUnits="userSpaceOnUse"><stop offset="0" stop-color="#6dc7ff"></stop><stop offset="1" stop-color="#e6abff"></stop></linearGradient><path fill="url(#zIatjYR2B4ilOwYOQBgNUa_t7vIvDXazOGO_gr1)" d="M56.528,32.066L59,29.414l-2.942-2.12l1.907-3.084l-3.299-1.505l1.269-3.397l-3.529-0.832	l0.582-3.579l-3.624-0.128l-0.128-3.624l-3.579,0.582l-0.832-3.529l-3.397,1.269l-1.505-3.299l-3.084,1.907l-2.12-2.942	l-2.653,2.472l-2.653-2.472l-2.12,2.942L24.21,6.168l-1.505,3.299l-3.397-1.269l-0.832,3.529l-3.579-0.582l-0.128,3.624	l-3.624,0.128l0.582,3.579l-3.529,0.832l1.269,3.397L6.168,24.21l1.907,3.084l-2.942,2.12l2.472,2.653l-2.472,2.653l2.942,2.12	l-1.907,3.084l3.299,1.505l-1.269,3.397l3.529,0.832l-0.582,3.579l3.624,0.128l0.128,3.624l3.579-0.582l0.832,3.529l3.397-1.269	l1.505,3.299l3.084-1.907L29.414,59l2.653-2.472L34.719,59l2.12-2.942l3.084,1.907l1.505-3.299l3.397,1.269l0.832-3.529l3.579,0.582	l0.128-3.624l3.624-0.128l-0.582-3.579l3.529-0.832l-1.269-3.397l3.299-1.505l-1.907-3.084L59,34.719L56.528,32.066z M32,10	c0.552,0,1,0.448,1,1s-0.448,1-1,1s-1-0.448-1-1S31.448,10,32,10z M12,25c0.552,0,1,0.448,1,1s-0.448,1-1,1s-1-0.448-1-1	S11.448,25,12,25z M12.21,39C11.431,36.811,11,34.458,11,32c0-0.856,0.066-1.695,0.166-2.524l2.947-1.001	c1.012-0.344,1.554-1.443,1.21-2.455L14.637,24H18v15H12.21z M21,51c-0.552,0-1-0.448-1-1s0.448-1,1-1s1,0.448,1,1S21.552,51,21,51z M43,51c-0.552,0-1-0.448-1-1s0.448-1,1-1s1,0.448,1,1S43.552,51,43,51z M46.262,47.383l-3.749-0.599	c-1.055-0.169-2.048,0.55-2.216,1.606l-0.494,3.096C37.388,52.454,34.76,53,32,53c-2.755,0-5.379-0.545-7.79-1.51l-0.495-3.1	c-0.169-1.055-1.161-1.775-2.216-1.606l-3.759,0.6c-1.098-1.019-2.085-2.155-2.947-3.385H18h9h5v-5h-5v-5h6.166	c5.219,1.25,0.755,10,9.834,10h6.207C48.345,45.229,47.36,46.365,46.262,47.383z M27,29v-4h7c1.105,0,2,0.895,2,2s-0.895,2-2,2H27z M52.9,34H50v1.66c0,1.845-1.155,3.34-3,3.34c-4,0-0.401-7.47-9-8c3.314,0,7-2.686,7-6s-3.686-6-7-6h-6h-5h-6h-3h-2.464	c3.057-3.87,7.437-6.64,12.471-7.61l2.691,2.691c0.756,0.756,1.981,0.756,2.737,0l2.674-2.674	c6.246,1.239,11.493,5.247,14.41,10.693l-1.811,3.204c-0.526,0.931-0.198,2.111,0.733,2.637l3.453,1.952	C52.963,30.586,53,31.289,53,32C53,32.675,52.963,33.341,52.9,34z M52,27c-0.552,0-1-0.448-1-1s0.448-1,1-1s1,0.448,1,1	S52.552,27,52,27z"></path><linearGradient id="zIatjYR2B4ilOwYOQBgNUb_t7vIvDXazOGO_gr2" x1="32.066" x2="32.066" y1="60" y2="4.133" gradientUnits="userSpaceOnUse"><stop offset="0" stop-color="#c822ff"></stop><stop offset="1" stop-color="#1a6dff"></stop></linearGradient><path fill="url(#zIatjYR2B4ilOwYOQBgNUb_t7vIvDXazOGO_gr2)" d="M29.413,60	c-0.032,0-0.065-0.002-0.099-0.005c-0.285-0.028-0.545-0.178-0.713-0.411l-1.574-2.186l-2.291,1.417	c-0.246,0.15-0.544,0.187-0.816,0.106c-0.275-0.083-0.501-0.281-0.62-0.542l-1.118-2.451l-2.523,0.942	c-0.27,0.103-0.568,0.08-0.821-0.055c-0.253-0.136-0.436-0.373-0.502-0.652l-0.618-2.622l-2.659,0.433	c-0.277,0.048-0.572-0.032-0.795-0.214c-0.222-0.183-0.354-0.451-0.364-0.738l-0.096-2.692l-2.692-0.096	c-0.287-0.01-0.556-0.143-0.738-0.364c-0.182-0.223-0.26-0.512-0.214-0.795l0.433-2.659l-2.622-0.618	c-0.279-0.066-0.517-0.249-0.652-0.502c-0.136-0.254-0.155-0.553-0.055-0.821l0.942-2.523l-2.451-1.118	c-0.261-0.119-0.459-0.345-0.542-0.62c-0.083-0.274-0.045-0.571,0.106-0.815l1.416-2.292L4.548,35.53	c-0.232-0.168-0.382-0.428-0.41-0.714c-0.028-0.285,0.067-0.569,0.264-0.779l1.836-1.971l-1.836-1.971	c-0.196-0.21-0.292-0.494-0.264-0.78s0.178-0.545,0.41-0.713l2.186-1.575l-1.416-2.292c-0.151-0.244-0.189-0.542-0.106-0.816	c0.083-0.274,0.281-0.5,0.542-0.619l2.451-1.118l-0.942-2.523c-0.101-0.269-0.081-0.568,0.055-0.821	c0.135-0.253,0.373-0.436,0.652-0.502l2.622-0.619l-0.433-2.659c-0.046-0.284,0.032-0.573,0.214-0.795	c0.183-0.222,0.451-0.355,0.738-0.365l2.692-0.095l0.096-2.692c0.01-0.287,0.143-0.556,0.364-0.738	c0.223-0.183,0.516-0.262,0.795-0.214l2.659,0.432l0.618-2.622c0.066-0.279,0.249-0.517,0.502-0.652s0.553-0.155,0.821-0.055	l2.523,0.942L23.3,5.752c0.119-0.261,0.345-0.458,0.62-0.542c0.272-0.083,0.571-0.044,0.816,0.106l2.291,1.417l1.574-2.186	c0.168-0.233,0.428-0.382,0.714-0.411c0.285-0.029,0.57,0.068,0.779,0.263l1.972,1.837l1.971-1.836	c0.21-0.195,0.494-0.292,0.779-0.264c0.286,0.028,0.546,0.178,0.714,0.411l1.575,2.186l2.291-1.417	c0.245-0.152,0.543-0.189,0.816-0.106c0.275,0.083,0.501,0.281,0.62,0.542l1.118,2.451l2.523-0.942	c0.27-0.102,0.569-0.082,0.821,0.055c0.253,0.135,0.436,0.373,0.502,0.652l0.618,2.622l2.659-0.432	c0.279-0.046,0.572,0.031,0.795,0.214c0.222,0.182,0.354,0.451,0.364,0.738l0.096,2.692l2.692,0.095	c0.287,0.01,0.556,0.143,0.738,0.365c0.182,0.222,0.26,0.511,0.214,0.795l-0.433,2.659l2.622,0.619	c0.279,0.066,0.518,0.249,0.652,0.502c0.136,0.253,0.155,0.552,0.055,0.821l-0.942,2.523L58.38,23.3	c0.261,0.119,0.459,0.345,0.542,0.62c0.083,0.274,0.045,0.572-0.106,0.816l-1.417,2.292l2.187,1.575	c0.232,0.168,0.382,0.428,0.41,0.713s-0.067,0.57-0.264,0.78l-1.836,1.971l1.836,1.971c0.196,0.21,0.292,0.494,0.264,0.779	c-0.028,0.286-0.178,0.546-0.41,0.714l-2.187,1.575l1.417,2.291c0.151,0.244,0.189,0.542,0.106,0.816	c-0.083,0.275-0.281,0.501-0.542,0.62l-2.451,1.118l0.942,2.523c0.101,0.269,0.081,0.567-0.055,0.821	c-0.136,0.253-0.373,0.436-0.652,0.502l-2.622,0.618l0.433,2.659c0.046,0.283-0.032,0.572-0.214,0.795	c-0.183,0.222-0.451,0.354-0.738,0.364L50.33,50.33l-0.096,2.692c-0.01,0.287-0.143,0.556-0.364,0.738	c-0.224,0.182-0.518,0.26-0.795,0.214l-2.659-0.433l-0.618,2.622c-0.066,0.279-0.249,0.517-0.502,0.652	c-0.252,0.136-0.551,0.158-0.821,0.055l-2.523-0.942l-1.118,2.451c-0.119,0.261-0.345,0.459-0.62,0.542	c-0.272,0.081-0.571,0.044-0.816-0.106l-2.291-1.417l-1.575,2.187c-0.168,0.232-0.428,0.382-0.714,0.41	c-0.285,0.028-0.569-0.067-0.779-0.264l-1.971-1.836l-1.972,1.836C29.909,59.905,29.665,60,29.413,60z M27.293,55.058	c0.312,0,0.618,0.146,0.812,0.416l1.456,2.021l1.823-1.698c0.385-0.357,0.979-0.357,1.363,0l1.822,1.698l1.457-2.022	c0.307-0.425,0.889-0.541,1.338-0.266l2.119,1.311l1.033-2.267c0.218-0.478,0.767-0.707,1.26-0.521l2.334,0.871l0.571-2.425	c0.121-0.511,0.623-0.844,1.134-0.758l2.46,0.4l0.088-2.49c0.019-0.524,0.439-0.945,0.964-0.964l2.49-0.088l-0.4-2.46	c-0.084-0.518,0.247-1.013,0.758-1.134l2.425-0.571l-0.871-2.334c-0.184-0.491,0.044-1.042,0.521-1.26l2.267-1.033l-1.311-2.119	c-0.276-0.447-0.16-1.031,0.266-1.338l2.022-1.457l-1.698-1.822c-0.358-0.384-0.358-0.979,0-1.363l1.698-1.823l-2.022-1.457	c-0.426-0.307-0.542-0.891-0.266-1.337l1.311-2.119l-2.267-1.034c-0.478-0.218-0.705-0.768-0.521-1.26l0.871-2.333l-2.425-0.572	c-0.511-0.121-0.842-0.616-0.758-1.134l0.4-2.459l-2.49-0.088c-0.524-0.019-0.945-0.439-0.964-0.964l-0.088-2.49l-2.46,0.399	c-0.511,0.089-1.013-0.246-1.134-0.757l-0.571-2.425l-2.334,0.872c-0.488,0.188-1.041-0.043-1.26-0.521l-1.034-2.267l-2.118,1.311	c-0.449,0.276-1.031,0.159-1.338-0.266L34.57,6.638l-1.822,1.698c-0.383,0.358-0.979,0.358-1.363,0l-1.823-1.699l-1.456,2.021	c-0.308,0.425-0.89,0.542-1.338,0.266l-2.118-1.311l-1.034,2.267c-0.218,0.477-0.771,0.708-1.26,0.521l-2.334-0.872l-0.571,2.425	c-0.121,0.511-0.625,0.846-1.134,0.757l-2.46-0.399l-0.088,2.49c-0.019,0.525-0.439,0.946-0.964,0.964l-2.49,0.088l0.4,2.459	c0.084,0.518-0.247,1.013-0.758,1.134l-2.425,0.572l0.871,2.333c0.184,0.492-0.044,1.042-0.521,1.26l-2.267,1.034l1.31,2.119	c0.276,0.446,0.16,1.03-0.266,1.337l-2.021,1.456l1.698,1.823c0.358,0.384,0.358,0.979,0,1.363L6.638,34.57l2.021,1.457	c0.426,0.308,0.542,0.891,0.266,1.337l-1.31,2.119l2.267,1.034c0.478,0.218,0.705,0.769,0.521,1.26l-0.871,2.334l2.425,0.571	c0.511,0.121,0.842,0.616,0.758,1.134l-0.4,2.46l2.49,0.088c0.524,0.019,0.945,0.439,0.964,0.964l0.088,2.49l2.46-0.4	c0.509-0.086,1.013,0.246,1.134,0.758l0.571,2.425l2.334-0.871c0.49-0.184,1.042,0.044,1.26,0.521l1.033,2.267l2.119-1.311	C26.932,55.106,27.113,55.058,27.293,55.058z"></path>
    </svg>